<?xml version="1.0" standalone="no"?>
<!DOCTYPE svg PUBLIC "-//W3C//DTD SVG 20010904//EN"
 "http://www.w3.org/TR/2001/REC-SVG-20010904/DTD/svg10.dtd">
<svg version="1.0" xmlns="http://www.w3.org/2000/svg"
 width="500.000000pt" height="500.000000pt" viewBox="0 0 500.000000 500.000000"
 preserveAspectRatio="xMidYMid meet">
<metadata>
Created by potrace 1.14, written by Peter Selinger 2001-2017
</metadata>
<g transform="translate(0.000000,500.000000) scale(0.100000,-0.100000)"
fill="#000000" stroke="none">
<path d="M2240 3628 c0 -176 21 -221 131 -279 l59 -32 0 -62 c0 -43 5 -66 15
-75 13 -11 15 -2 15 74 l0 86 -52 28 c-113 60 -137 101 -138 230 0 73 5 75 72
33 65 -41 82 -72 88 -155 3 -43 10 -71 18 -74 9 -3 12 17 12 75 0 116 -22 154
-124 216 -44 26 -83 47 -88 47 -4 0 -8 -51 -8 -112z"/>
<path d="M2674 3702 c-79 -47 -104 -69 -120 -108 -17 -41 -31 -194 -17 -194
21 0 31 27 35 92 3 58 8 72 33 98 16 17 49 42 72 55 l43 24 0 -93 c0 -115 -17
-146 -105 -193 -32 -17 -65 -39 -72 -49 -15 -21 -18 -150 -4 -159 17 -10 31
31 31 89 l0 55 61 32 c105 56 128 108 129 287 0 75 -3 102 -12 101 -7 0 -41
-17 -74 -37z"/>
<path d="M1970 3483 c0 -130 21 -164 148 -239 40 -24 42 -24 42 -6 0 13 -15
29 -42 45 -79 46 -92 68 -97 159 l-3 80 48 -28 c128 -72 144 -97 144 -218 l0
-85 71 -41 c39 -23 73 -40 76 -37 11 12 -18 43 -60 66 l-45 25 -4 87 c-4 119
-27 151 -163 230 -55 32 -103 58 -107 59 -5 0 -8 -44 -8 -97z"/>
<path d="M2923 3526 c-51 -29 -102 -61 -114 -72 -41 -37 -59 -88 -59 -171 l-1
-78 -52 -30 c-28 -16 -53 -39 -55 -49 -4 -17 3 -15 54 14 95 52 97 56 90 125
-11 111 18 160 133 223 l61 33 0 -61 c0 -80 -19 -122 -72 -159 -63 -43 -84
-64 -70 -69 16 -5 111 51 144 85 15 15 32 41 37 56 12 32 15 207 4 207 -5 0
-50 -24 -100 -54z"/>
<path d="M1870 3233 c-28 -10 -150 -85 -150 -92 0 -3 46 -33 103 -66 96 -57
106 -60 167 -60 58 0 72 4 127 38 l62 38 49 -31 c52 -32 67 -36 77 -21 6 11
-105 81 -130 81 -9 0 -44 -17 -78 -37 -84 -53 -136 -52 -229 3 -37 21 -68 41
-68 44 0 14 100 63 136 68 34 3 54 -2 103 -28 44 -24 65 -30 72 -23 12 12 -41
47 -113 77 -37 16 -99 20 -128 9z"/>
<path d="M2994 3226 c-61 -27 -117 -67 -106 -78 6 -6 29 0 68 21 76 40 114 39
187 -2 66 -38 67 -35 -34 -91 -86 -47 -116 -47 -203 4 -37 22 -75 40 -84 40
-8 0 -44 -17 -79 -37 -44 -26 -60 -40 -52 -48 7 -7 28 0 70 23 l60 32 66 -40
c100 -60 137 -57 275 20 59 33 109 64 112 69 3 4 -32 29 -77 55 -89 50 -142
58 -203 32z"/>
<path d="M1934 2947 c-44 -17 -214 -117 -214 -125 0 -15 153 -93 193 -98 36
-5 54 0 125 36 45 23 82 45 82 51 0 17 -37 9 -85 -17 -27 -16 -62 -27 -84 -27
-34 0 -133 42 -145 62 -3 5 22 26 57 46 44 27 77 39 114 43 48 4 59 1 122 -37
38 -22 72 -41 76 -41 12 0 135 75 135 82 0 16 -42 7 -80 -17 -22 -14 -45 -25
-51 -25 -6 0 -36 16 -67 35 -64 39 -130 51 -178 32z"/>
<path d="M2919 2932 c-30 -15 -64 -34 -76 -42 -19 -13 -27 -11 -71 13 -53 29
-103 37 -84 14 6 -7 39 -28 74 -46 l64 -34 70 41 c94 56 131 56 232 0 84 -46
84 -45 -3 -90 -53 -28 -104 -26 -164 6 -54 28 -85 34 -79 14 6 -18 127 -78
171 -85 32 -5 52 1 122 37 47 23 89 48 95 55 8 10 -13 26 -88 69 -150 86 -180
91 -263 48z"/>
<path d="M2640 2840 c0 -12 19 -29 55 -50 l55 -31 0 -82 c0 -120 17 -145 155
-229 61 -36 113 -67 118 -67 4 -1 7 40 7 91 0 136 -33 188 -158 252 -68 35
-51 -7 19 -49 65 -38 89 -83 89 -165 0 -33 -4 -60 -8 -60 -4 0 -39 19 -77 43
-92 55 -119 103 -110 192 3 33 3 68 0 77 -4 10 -38 35 -76 57 -60 35 -69 38
-69 21z"/>
<path d="M2275 2812 l-60 -37 -5 -95 c-6 -116 -16 -134 -110 -189 -38 -23 -71
-41 -74 -41 -3 0 -6 29 -6 65 0 85 17 117 85 161 30 19 55 41 55 49 0 8 -2 15
-4 15 -17 0 -129 -75 -150 -100 -31 -38 -38 -72 -34 -177 l3 -82 95 55 c52 31
106 66 119 77 41 38 63 100 60 174 l-2 67 53 35 c96 64 74 84 -25 23z"/>
<path d="M2436 2774 c-3 -9 -6 -40 -6 -69 l0 -54 -69 -41 c-105 -61 -115 -83
-119 -254 l-4 -139 69 38 c129 71 153 108 153 236 0 71 -2 80 -15 69 -10 -8
-15 -31 -15 -69 0 -76 -24 -118 -91 -158 -30 -18 -58 -33 -63 -33 -5 0 -7 40
-4 88 5 117 22 145 116 197 l72 40 0 83 c0 76 -10 103 -24 66z"/>
<path d="M2537 2783 c-9 -8 -9 -110 -1 -141 4 -15 26 -33 63 -52 31 -15 70
-42 86 -60 29 -30 30 -36 33 -131 2 -54 0 -99 -5 -98 -4 0 -28 13 -53 28 -65
39 -90 81 -90 151 0 33 -6 64 -14 76 -14 19 -15 19 -22 0 -13 -33 11 -180 33
-212 18 -24 168 -124 187 -124 10 0 7 196 -5 251 -14 64 -59 116 -128 149
l-51 23 0 62 c0 59 -16 96 -33 78z"/>
<path d="M1970 1960 c0 -33 3 -60 8 -60 4 0 7 27 7 60 0 33 -3 60 -7 60 -5 0
-8 -27 -8 -60z"/>
<path d="M2050 1960 c0 -33 3 -60 8 -60 4 0 7 27 7 60 0 33 -3 60 -7 60 -5 0
-8 -27 -8 -60z"/>
<path d="M2256 2004 c-23 -23 -20 -68 7 -90 22 -19 22 -19 5 2 -23 26 -23 62
-1 86 20 22 11 24 -11 2z"/>
<path d="M2337 1992 c17 -31 17 -33 0 -64 l-19 -33 21 19 c27 24 27 68 0 92
l-21 19 19 -33z"/>
<path d="M2558 1960 c-1 -33 0 -60 5 -60 4 0 7 27 7 60 0 77 -7 77 -12 0z"/>
<path d="M2778 1960 c-1 -33 0 -60 5 -60 4 0 7 27 7 60 0 77 -7 77 -12 0z"/>
<path d="M3018 1960 c-1 -33 0 -60 5 -60 4 0 7 27 7 60 0 77 -7 77 -12 0z"/>
<path d="M3428 1963 c79 -2 205 -2 280 0 75 1 11 3 -143 3 -154 0 -216 -2
-137 -3z"/>
<path d="M1298 1953 c79 -2 205 -2 280 0 75 1 11 3 -143 3 -154 0 -216 -2
-137 -3z"/>
<path d="M2818 1903 c7 -3 16 -2 19 1 4 3 -2 6 -13 5 -11 0 -14 -3 -6 -6z"/>
<path d="M3058 1903 c7 -3 16 -2 19 1 4 3 -2 6 -13 5 -11 0 -14 -3 -6 -6z"/>
<path d="M925 1828 c-86 -31 -129 -97 -130 -198 0 -127 78 -205 205 -204 67 0
98 11 138 47 17 16 22 31 22 72 0 28 5 56 12 63 9 9 4 12 -26 12 -32 0 -36 -2
-27 -14 7 -8 11 -37 9 -67 -2 -43 -8 -55 -30 -72 -33 -25 -117 -34 -158 -17
-100 41 -137 197 -71 303 56 90 213 89 261 -2 l19 -36 -5 35 c-9 57 -11 58
-65 74 -60 18 -110 19 -154 4z"/>
<path d="M1263 1769 c15 -9 17 -28 17 -159 0 -131 -2 -150 -17 -159 -14 -8 -7
-10 32 -10 39 0 46 2 33 10 -16 9 -18 28 -18 159 l0 150 44 0 c52 0 76 -24 76
-77 0 -43 -30 -73 -72 -73 -31 0 -32 -1 -12 -14 12 -8 38 -40 60 -71 40 -59
76 -85 116 -85 l23 0 -25 13 c-13 7 -48 41 -77 77 -51 64 -52 65 -28 73 33 12
60 71 48 111 -12 45 -60 66 -148 66 -52 -1 -66 -3 -52 -11z"/>
<path d="M1613 1769 c15 -9 17 -28 17 -159 0 -131 -2 -150 -17 -159 -13 -8 8
-10 79 -11 86 0 98 2 108 19 15 30 12 36 -9 16 -13 -11 -38 -18 -73 -19 l-53
-1 -3 73 -3 72 50 0 c30 0 51 -5 54 -12 3 -7 6 0 6 17 1 22 -2 26 -11 17 -7
-7 -31 -12 -55 -12 l-43 0 0 75 0 75 59 0 c38 0 61 -4 64 -12 3 -7 6 -3 6 10
1 21 -2 22 -96 22 -72 -1 -93 -3 -80 -11z"/>
<path d="M1918 1768 c8 -8 12 -58 12 -158 0 -100 -4 -150 -12 -158 -9 -9 9
-12 84 -12 83 0 96 2 101 18 2 9 8 26 13 37 5 14 0 12 -17 -8 -21 -25 -33 -29
-79 -30 l-55 -2 0 70 0 70 53 0 c29 0 52 5 52 10 0 6 -22 11 -52 10 l-53 0 -3
73 -3 74 66 -4 c47 -2 65 0 65 10 0 9 -25 12 -92 12 -72 0 -89 -3 -80 -12z"/>
<path d="M2228 1623 c3 -140 1 -159 -14 -170 -16 -11 -13 -13 20 -13 32 0 36
2 27 14 -8 9 -11 54 -9 135 l3 121 125 -136 125 -135 3 158 c2 134 5 160 19
171 14 10 10 12 -27 12 -38 0 -41 -2 -27 -13 15 -11 17 -28 15 -135 l-3 -123
-124 133 c-69 73 -127 134 -130 136 -4 1 -5 -69 -3 -155z"/>
<path d="M2648 1768 c8 -8 12 -58 12 -158 0 -100 -4 -150 -12 -158 -9 -9 -3
-12 31 -12 39 0 41 1 27 16 -13 13 -16 42 -16 160 l0 144 43 0 c54 0 79 -24
79 -75 0 -48 -25 -75 -71 -76 -34 0 -35 -1 -11 -10 74 -30 148 60 109 133 -16
29 -70 48 -141 48 -48 0 -59 -3 -50 -12z"/>
<path d="M2944 1764 c13 -12 16 -40 16 -134 0 -113 1 -120 26 -149 31 -37 85
-53 137 -42 78 18 97 58 97 209 0 71 4 112 12 120 9 9 4 12 -26 12 -34 0 -36
-1 -22 -16 19 -18 22 -175 6 -236 -22 -79 -114 -105 -171 -49 l-29 29 0 130
c0 95 3 132 13 135 6 3 -7 6 -31 6 -39 1 -42 0 -28 -15z"/>
<path d="M3353 1762 c24 -27 25 -283 1 -306 -14 -15 -7 -16 79 -16 l95 0 11
33 c9 27 9 29 -2 15 -18 -22 -60 -38 -103 -38 l-34 0 0 153 c0 106 4 157 12
165 9 9 2 12 -32 12 -41 0 -42 -1 -27 -18z"/>
<path d="M3655 1755 c-44 -43 -35 -79 39 -149 71 -68 81 -87 64 -119 -15 -30
-27 -37 -66 -37 -26 0 -36 6 -52 33 l-20 32 0 -26 c0 -36 20 -50 74 -52 59 -3
96 30 96 84 0 32 -8 44 -65 100 -49 47 -65 70 -65 90 0 52 54 77 92 42 17 -15
18 -15 18 5 0 19 -6 22 -45 22 -35 0 -52 -6 -70 -25z"/>
<path d="M3893 1769 c15 -9 17 -28 17 -159 0 -131 -2 -150 -17 -159 -13 -8 8
-10 79 -11 86 0 98 2 108 19 15 30 12 36 -9 16 -13 -11 -38 -18 -73 -19 l-53
-1 -3 73 -3 72 50 0 c30 0 51 -5 54 -12 3 -7 6 0 6 17 1 22 -2 26 -11 17 -7
-7 -31 -12 -55 -12 l-43 0 0 75 0 75 59 0 c38 0 61 -4 64 -12 3 -7 6 -3 6 10
1 21 -2 22 -96 22 -72 -1 -93 -3 -80 -11z"/>
</g>
</svg>
